<svg xmlns="http://www.w3.org/2000/svg" xmlns:xlink="http://www.w3.org/1999/xlink" width="500" zoomAndPan="magnify" viewBox="0 0 375 374.999991" height="500" preserveAspectRatio="xMidYMid meet" version="1.0"><defs><g/><clipPath id="03f39877fb"><path d="M 147.5 147.5 L 227.5 147.5 L 227.5 227.5 L 147.5 227.5 Z M 147.5 147.5 " clip-rule="nonzero"/></clipPath><clipPath id="54b25cb117"><path d="M 165.5 147.5 L 209.5 147.5 C 214.273438 147.5 218.851562 149.394531 222.226562 152.773438 C 225.605469 156.148438 227.5 160.726562 227.5 165.5 L 227.5 209.5 C 227.5 214.273438 225.605469 218.851562 222.226562 222.226562 C 218.851562 225.605469 214.273438 227.5 209.5 227.5 L 165.5 227.5 C 155.558594 227.5 147.5 219.441406 147.5 209.5 L 147.5 165.5 C 147.5 155.558594 155.558594 147.5 165.5 147.5 Z M 165.5 147.5 " clip-rule="nonzero"/></clipPath><clipPath id="026082e851"><path d="M 0.5 0.5 L 80.5 0.5 L 80.5 80.5 L 0.5 80.5 Z M 0.5 0.5 " clip-rule="nonzero"/></clipPath><clipPath id="940061e57d"><path d="M 18.5 0.5 L 62.5 0.5 C 67.273438 0.5 71.851562 2.394531 75.226562 5.773438 C 78.605469 9.148438 80.5 13.726562 80.5 18.5 L 80.5 62.5 C 80.5 67.273438 78.605469 71.851562 75.226562 75.226562 C 71.851562 78.605469 67.273438 80.5 62.5 80.5 L 18.5 80.5 C 8.558594 80.5 0.5 72.441406 0.5 62.5 L 0.5 18.5 C 0.5 8.558594 8.558594 0.5 18.5 0.5 Z M 18.5 0.5 " clip-rule="nonzero"/></clipPath><clipPath id="504126f75c"><rect x="0" width="81" y="0" height="81"/></clipPath></defs><rect x="-37.5" width="450" fill="#ffffff" y="-37.499999" height="449.999989" fill-opacity="1"/><rect x="-37.5" width="450" fill="#ffffff" y="-37.499999" height="449.999989" fill-opacity="1"/><g clip-path="url(#03f39877fb)"><g clip-path="url(#54b25cb117)"><g transform="matrix(1, 0, 0, 1, 147, 147)"><g clip-path="url(#504126f75c)"><g clip-path="url(#026082e851)"><g clip-path="url(#940061e57d)"><path fill="#000000" d="M 0.5 0.5 L 80.5 0.5 L 80.5 80.5 L 0.5 80.5 Z M 0.5 0.5 " fill-opacity="1" fill-rule="nonzero"/></g></g></g></g></g></g><g fill="#ffffff" fill-opacity="1"><g transform="translate(171.943352, 202.499972)"><g><path d="M 15.5625 0.40625 C 12.945312 0.40625 10.640625 -0.125 8.640625 -1.1875 C 6.640625 -2.257812 5.070312 -3.890625 3.9375 -6.078125 C 2.8125 -8.273438 2.25 -11.007812 2.25 -14.28125 C 2.25 -17.550781 2.8125 -20.28125 3.9375 -22.46875 C 5.070312 -24.664062 6.640625 -26.296875 8.640625 -27.359375 C 10.640625 -28.429688 12.945312 -28.96875 15.5625 -28.96875 C 18.1875 -28.96875 20.492188 -28.4375 22.484375 -27.375 C 24.472656 -26.3125 26.03125 -24.679688 27.15625 -22.484375 C 28.28125 -20.285156 28.84375 -17.550781 28.84375 -14.28125 C 28.84375 -11.007812 28.28125 -8.273438 27.15625 -6.078125 C 26.03125 -3.878906 24.472656 -2.25 22.484375 -1.1875 C 20.492188 -0.125 18.1875 0.40625 15.5625 0.40625 Z M 15.5625 -4.5 C 17.988281 -4.5 19.835938 -5.273438 21.109375 -6.828125 C 22.390625 -8.378906 23.03125 -10.863281 23.03125 -14.28125 C 23.03125 -17.6875 22.390625 -20.171875 21.109375 -21.734375 C 19.835938 -23.296875 17.988281 -24.078125 15.5625 -24.078125 C 13.132812 -24.078125 11.273438 -23.296875 9.984375 -21.734375 C 8.703125 -20.171875 8.0625 -17.6875 8.0625 -14.28125 C 8.0625 -10.863281 8.703125 -8.378906 9.984375 -6.828125 C 11.273438 -5.273438 13.132812 -4.5 15.5625 -4.5 Z M 15.5625 -4.5 "/></g></g></g></svg>