<svg xmlns="http://www.w3.org/2000/svg" xmlns:xlink="http://www.w3.org/1999/xlink" width="500" zoomAndPan="magnify" viewBox="0 0 375 374.999991" height="500" preserveAspectRatio="xMidYMid meet" version="1.0"><defs><g/><clipPath id="eb4ae33992"><path d="M 0.542969 0.578125 L 188.390625 0.578125 L 188.390625 188.421875 L 0.542969 188.421875 Z M 0.542969 0.578125 " clip-rule="nonzero"/></clipPath><clipPath id="c0bd5b4ff4"><path d="M 30.542969 0.578125 L 158.390625 0.578125 C 174.960938 0.578125 188.390625 14.007812 188.390625 30.578125 L 188.390625 158.421875 C 188.390625 174.992188 174.960938 188.421875 158.390625 188.421875 L 30.542969 188.421875 C 13.976562 188.421875 0.542969 174.992188 0.542969 158.421875 L 0.542969 30.578125 C 0.542969 14.007812 13.976562 0.578125 30.542969 0.578125 Z M 30.542969 0.578125 " clip-rule="nonzero"/></clipPath><clipPath id="ee13bdb988"><path d="M 0.542969 0.578125 L 188.390625 0.578125 L 188.390625 188.421875 L 0.542969 188.421875 Z M 0.542969 0.578125 " clip-rule="nonzero"/></clipPath><clipPath id="faf5960d72"><path d="M 30.542969 0.578125 L 158.390625 0.578125 C 174.960938 0.578125 188.390625 14.007812 188.390625 30.578125 L 188.390625 158.421875 C 188.390625 174.992188 174.960938 188.421875 158.390625 188.421875 L 30.542969 188.421875 C 13.976562 188.421875 0.542969 174.992188 0.542969 158.421875 L 0.542969 30.578125 C 0.542969 14.007812 13.976562 0.578125 30.542969 0.578125 Z M 30.542969 0.578125 " clip-rule="nonzero"/></clipPath><clipPath id="6a868b762c"><rect x="0" width="189" y="0" height="189"/></clipPath><clipPath id="7c58555560"><rect x="0" width="189" y="0" height="189"/></clipPath></defs><rect x="-37.5" width="450" fill="#ffffff" y="-37.499999" height="449.999989" fill-opacity="1"/><rect x="-37.5" width="450" fill="#ffffff" y="-37.499999" height="449.999989" fill-opacity="1"/><g transform="matrix(1, 0, 0, 1, 98, 93)"><g clip-path="url(#7c58555560)"><g clip-path="url(#eb4ae33992)"><g clip-path="url(#c0bd5b4ff4)"><g><g clip-path="url(#6a868b762c)"><g clip-path="url(#ee13bdb988)"><g clip-path="url(#faf5960d72)"><path fill="#000000" d="M 0.542969 0.578125 L 188.390625 0.578125 L 188.390625 188.421875 L 0.542969 188.421875 Z M 0.542969 0.578125 " fill-opacity="1" fill-rule="nonzero"/></g></g></g></g></g></g><g fill="#ffffff" fill-opacity="1"><g transform="translate(57.939202, 129.721139)"><g><path d="M 36.546875 0.96875 C 30.398438 0.96875 24.976562 -0.285156 20.28125 -2.796875 C 15.59375 -5.304688 11.921875 -9.132812 9.265625 -14.28125 C 6.609375 -19.4375 5.28125 -25.851562 5.28125 -33.53125 C 5.28125 -41.195312 6.609375 -47.601562 9.265625 -52.75 C 11.921875 -57.90625 15.59375 -61.738281 20.28125 -64.25 C 24.976562 -66.757812 30.398438 -68.015625 36.546875 -68.015625 C 42.691406 -68.015625 48.101562 -66.765625 52.78125 -64.265625 C 57.457031 -61.773438 61.117188 -57.945312 63.765625 -52.78125 C 66.410156 -47.613281 67.734375 -41.195312 67.734375 -33.53125 C 67.734375 -25.851562 66.410156 -19.429688 63.765625 -14.265625 C 61.117188 -9.097656 57.457031 -5.265625 52.78125 -2.765625 C 48.101562 -0.273438 42.691406 0.96875 36.546875 0.96875 Z M 36.546875 -10.546875 C 42.234375 -10.546875 46.570312 -12.375 49.5625 -16.03125 C 52.5625 -19.6875 54.0625 -25.519531 54.0625 -33.53125 C 54.0625 -41.539062 52.5625 -47.378906 49.5625 -51.046875 C 46.570312 -54.710938 42.234375 -56.546875 36.546875 -56.546875 C 30.828125 -56.546875 26.460938 -54.710938 23.453125 -51.046875 C 20.441406 -47.378906 18.9375 -41.539062 18.9375 -33.53125 C 18.9375 -25.519531 20.441406 -19.6875 23.453125 -16.03125 C 26.460938 -12.375 30.828125 -10.546875 36.546875 -10.546875 Z M 36.546875 -10.546875 "/></g></g></g></g></g></svg>